<svg width="40" height="17" viewBox="0 0 40 17" fill="none" xmlns="http://www.w3.org/2000/svg">
<path d="M39.8965 11.5935L39.4991 13.6681C39.1317 15.6078 37.3145 16.9125 35.2574 16.7126L31.1656 16.3176C29.3809 16.1452 28.0587 14.8429 27.4988 12.9932C26.7389 10.4812 26.249 8.61904 26.249 8.61904C24.2754 7.77321 22.1473 7.34759 20.0001 7.36926C17.4656 7.36926 15.6559 7.90667 13.7513 8.61904C13.7513 8.61904 13.2414 10.4837 12.5015 12.9932C12.0066 14.6679 11.2417 16.1352 9.49455 16.3101L5.42529 16.7201C4.43437 16.8152 3.44088 16.5666 2.61161 16.0158C1.78235 15.4651 1.16779 14.6459 0.871122 13.6956L0.251235 11.626C-0.0559929 10.6353 -0.0839117 9.5791 0.170552 8.57359C0.425016 7.56809 0.951995 6.65229 1.69347 5.92703C5.25533 2.46516 11.6667 0.51551 19.9801 0.503012C28.3086 0.495514 33.9626 2.43516 37.8819 5.89453C39.5316 7.34927 40.2889 9.53887 39.8965 11.5935Z" fill="white"/>
</svg>
