<svg width="25" height="25" viewBox="0 0 25 25" fill="none" xmlns="http://www.w3.org/2000/svg">
<g clip-path="url(#clip0_503_1800)">
<path fill-rule="evenodd" clip-rule="evenodd" d="M0.65 7.27875C0 8.4625 0 9.89375 0 12.7538V14.6563C0 19.5313 -1.49012e-07 21.97 1.465 23.485C2.92875 25 5.28625 25 10 25H15C19.7137 25 22.0712 25 23.535 23.485C25 21.97 25 19.5325 25 14.6563V12.755C25 9.89375 25 8.46375 24.35 7.27875C23.7025 6.0925 22.5162 5.3575 20.145 3.885L17.645 2.33375C15.1387 0.7775 13.885 0 12.5 0C11.115 0 9.8625 0.7775 7.355 2.33375L4.855 3.885C2.48375 5.3575 1.29875 6.0925 0.65 7.27875ZM11.5625 20C11.5625 20.2486 11.6613 20.4871 11.8371 20.6629C12.0129 20.8387 12.2514 20.9375 12.5 20.9375C12.7486 20.9375 12.9871 20.8387 13.1629 20.6629C13.3387 20.4871 13.4375 20.2486 13.4375 20V16.25C13.4375 16.0014 13.3387 15.7629 13.1629 15.5871C12.9871 15.4113 12.7486 15.3125 12.5 15.3125C12.2514 15.3125 12.0129 15.4113 11.8371 15.5871C11.6613 15.7629 11.5625 16.0014 11.5625 16.25V20Z" fill="#5D45F0"/>
</g>
<defs>
<clipPath id="clip0_503_1800">
<rect width="25" height="25" fill="white"/>
</clipPath>
</defs>
</svg>
