<svg width="30" height="28" viewBox="0 0 30 28" fill="none" xmlns="http://www.w3.org/2000/svg">
<g clip-path="url(#clip0_503_1796)">
<path d="M7.78439 0.240356C7.19528 2.01372 6.71623 3.81961 6.96223 5.55813C7.23413 7.45692 8.3217 9.32668 11.2154 11.1151C7.74554 15.4586 5.64161 22.984 7.37655 27.2404C8.08217 24.1047 8.2958 21.5614 10.8399 18.8439C15.857 17.3574 18.8608 16.6605 19.9225 11.5448C20.3238 10.6913 20.7382 10.4241 21.9876 10.1106C22.6738 9.94219 23.4247 9.67508 23.4182 8.9957C23.4053 6.133 21.5862 5.02392 19.6894 5.05295C17.7862 5.08198 15.8052 6.24913 15.4557 7.94469C15.0672 8.04921 14.6853 8.20599 14.3098 8.40922C10.2379 5.87169 8.99496 3.42359 7.78439 0.240356ZM0.814209 5.08779C1.51336 6.66721 2.52584 8.25825 3.99924 9.50669C5.5704 10.8364 7.65491 11.7887 10.5292 11.9571C8.2958 10.5519 6.98165 9.03635 6.30839 7.47434C4.40514 6.84141 2.65272 6.02267 0.814209 5.08779ZM20.2397 6.61495C20.4489 6.61557 20.6494 6.6904 20.7974 6.82312C20.9454 6.95584 21.0288 7.13567 21.0295 7.32337C21.0288 7.51107 20.9454 7.6909 20.7974 7.82362C20.6494 7.95634 20.4489 8.03118 20.2397 8.03179C20.0304 8.03118 19.8299 7.95634 19.682 7.82362C19.534 7.6909 19.4506 7.51107 19.4499 7.32337C19.4506 7.13567 19.534 6.95584 19.682 6.82312C19.8299 6.6904 20.0304 6.61557 20.2397 6.61495ZM24.1239 9.87251C23.8973 10.1687 23.6642 10.4648 23.0816 10.639C25.2762 12.1081 28.2023 15.0811 29.8142 16.736C29.0892 14.8082 26.2019 11.5913 24.1239 9.87251Z" fill="#8F8F8F"/>
</g>
<defs>
<clipPath id="clip0_503_1796">
<rect width="30" height="28" fill="white"/>
</clipPath>
</defs>
</svg>
