<svg width="25" height="24" viewBox="0 0 25 24" fill="none" xmlns="http://www.w3.org/2000/svg">
<g clip-path="url(#clip0_503_1786)">
<path d="M22.5 8.75V7.5L15 0H2.5C1.1125 0 0 1.1125 0 2.5V20C0 20.663 0.263392 21.2989 0.732233 21.7678C1.20107 22.2366 1.83696 22.5 2.5 22.5H10V20.1625L20.4875 9.675C21.0375 9.125 21.7375 8.825 22.5 8.75ZM13.75 1.875L20.625 8.75H13.75V1.875ZM24.8125 13.9875L23.5875 15.2125L21.0375 12.6625L22.2625 11.4375C22.5 11.1875 22.9125 11.1875 23.1625 11.4375L24.8125 13.0875C25.0625 13.3375 25.0625 13.75 24.8125 13.9875ZM20.1625 13.5375L22.7125 16.0875L15.05 23.75H12.5V21.2L20.1625 13.5375Z" fill="#8F8F8F"/>
</g>
<defs>
<clipPath id="clip0_503_1786">
<rect width="25" height="24" fill="white"/>
</clipPath>
</defs>
</svg>
