<svg width="74" height="46" viewBox="0 0 74 46" fill="none" xmlns="http://www.w3.org/2000/svg">
<path d="M26.5625 1.875C26.043 1.875 25.625 2.29297 25.625 2.8125V4.6875C25.625 5.20703 26.043 5.625 26.5625 5.625H28.4375C28.957 5.625 29.375 5.20703 29.375 4.6875V2.8125C29.375 2.29297 28.957 1.875 28.4375 1.875H26.5625ZM32.5 2.5C31.8086 2.5 31.25 3.05859 31.25 3.75C31.25 4.44141 31.8086 5 32.5 5H43.75C44.4414 5 45 4.44141 45 3.75C45 3.05859 44.4414 2.5 43.75 2.5H32.5ZM32.5 8.75C31.8086 8.75 31.25 9.30859 31.25 10C31.25 10.6914 31.8086 11.25 32.5 11.25H43.75C44.4414 11.25 45 10.6914 45 10C45 9.30859 44.4414 8.75 43.75 8.75H32.5ZM32.5 15C31.8086 15 31.25 15.5586 31.25 16.25C31.25 16.9414 31.8086 17.5 32.5 17.5H43.75C44.4414 17.5 45 16.9414 45 16.25C45 15.5586 44.4414 15 43.75 15H32.5ZM25.625 9.0625V10.9375C25.625 11.457 26.043 11.875 26.5625 11.875H28.4375C28.957 11.875 29.375 11.457 29.375 10.9375V9.0625C29.375 8.54297 28.957 8.125 28.4375 8.125H26.5625C26.043 8.125 25.625 8.54297 25.625 9.0625ZM26.5625 14.375C26.043 14.375 25.625 14.793 25.625 15.3125V17.1875C25.625 17.707 26.043 18.125 26.5625 18.125H28.4375C28.957 18.125 29.375 17.707 29.375 17.1875V15.3125C29.375 14.793 28.957 14.375 28.4375 14.375H26.5625Z" fill="#4B72FD"/>
<path d="M16.1714 33.104H17.4754V33.976H16.1714V33.104ZM15.3794 30.296H16.4514V37.704H15.3794V30.296ZM10.8674 31.008H11.9314V35.608H10.8674V31.008ZM10.8674 35.016H11.5074C12.5634 35.016 13.7074 34.944 14.8994 34.704L15.0114 35.576C13.7874 35.832 12.5954 35.896 11.5074 35.896H10.8674V35.016ZM19.9868 30.792C21.1548 30.792 22.0268 31.552 22.0268 32.616C22.0268 33.688 21.1548 34.448 19.9868 34.448C18.8268 34.448 17.9388 33.688 17.9388 32.616C17.9388 31.552 18.8268 30.792 19.9868 30.792ZM19.9868 31.704C19.4188 31.704 18.9868 32.04 18.9868 32.616C18.9868 33.2 19.4188 33.536 19.9868 33.536C20.5548 33.536 20.9868 33.2 20.9868 32.616C20.9868 32.04 20.5548 31.704 19.9868 31.704ZM22.7228 30.296H23.7868V37.728H22.7228V30.296ZM17.7628 36.224L17.6348 35.368C18.9388 35.368 20.7548 35.352 22.3148 35.12L22.3948 35.888C20.7868 36.208 19.0428 36.224 17.7628 36.224ZM26.7987 30.592H31.8307V33.216H26.7987V30.592ZM30.7827 31.424H27.8387V32.384H30.7827V31.424ZM25.9747 33.912H32.6707V34.752H25.9747V33.912ZM28.7827 33.024H29.8467V34.152H28.7827V33.024ZM26.7187 35.288H31.8627V37.712H30.7987V36.128H26.7187V35.288ZM32.9421 35.976H39.6461V36.848H32.9421V35.976ZM35.7261 34.328H36.7821V36.208H35.7261V34.328ZM35.6861 30.712H36.6141V31.248C36.6141 32.824 35.4701 34.216 33.5341 34.568L33.0941 33.68C34.7821 33.408 35.6861 32.272 35.6861 31.248V30.712ZM35.8941 30.712H36.8221V31.248C36.8221 32.296 37.7261 33.408 39.4221 33.68L38.9821 34.568C37.0381 34.208 35.8941 32.848 35.8941 31.248V30.712ZM44.9974 30.296H46.0614V37.728H44.9974V30.296ZM40.2934 35.136H40.9494C42.2614 35.136 43.3094 35.088 44.4854 34.888L44.5894 35.744C43.3894 35.96 42.3014 36 40.9494 36H40.2934V35.136ZM40.2854 30.928H43.7814V33.792H41.3734V35.456H40.2934V32.952H42.6934V31.776H40.2854V30.928ZM50.5018 30.592H55.5338V33.216H50.5018V30.592ZM54.4858 31.424H51.5418V32.384H54.4858V31.424ZM49.6778 33.912H56.3738V34.752H49.6778V33.912ZM52.4858 33.024H53.5498V34.152H52.4858V33.024ZM50.4218 35.288H55.5658V37.712H54.5018V36.128H50.4218V35.288ZM56.6372 34.272H63.3492V35.12H56.6372V34.272ZM57.4612 30.448H62.5332V32.456H58.5252V33.256H57.4692V31.704H61.4852V31.256H57.4612V30.448ZM57.4692 32.936H62.6772V33.744H57.4692V32.936ZM59.4612 33.328H60.5252V34.736H59.4612V33.328ZM57.3812 35.536H62.5812V37.688H61.5172V36.376H57.3812V35.536Z" fill="black"/>
</svg>
