<svg width="74" height="49" viewBox="0 0 74 49" fill="none" xmlns="http://www.w3.org/2000/svg">
<path d="M14.9657 33.928H18.6377V38.976H14.9657V33.928ZM17.3657 34.936H16.2377V37.968H17.3657V34.936ZM19.4218 33.256H20.7178V40.76H19.4218V33.256ZM20.4377 35.992H21.7257V37.048H20.4377V35.992ZM26.7171 33.24H28.0131V40.776H26.7171V33.24ZM23.9251 33.736C25.0771 33.736 25.9331 34.784 25.9331 36.448C25.9331 38.128 25.0771 39.176 23.9251 39.176C22.7731 39.176 21.9171 38.128 21.9171 36.448C21.9171 34.784 22.7731 33.736 23.9251 33.736ZM23.9251 34.912C23.4611 34.912 23.1571 35.4 23.1571 36.448C23.1571 37.512 23.4611 38 23.9251 38C24.3891 38 24.6931 37.512 24.6931 36.448C24.6931 35.4 24.3891 34.912 23.9251 34.912ZM29.4365 33.848H34.1485V34.872H29.4365V33.848ZM28.7005 38.912H35.4925V39.96H28.7005V38.912ZM33.6125 33.848H34.8845V34.688C34.8845 35.776 34.8845 36.824 34.5165 38.512L33.2445 38.4C33.6125 36.848 33.6125 35.736 33.6125 34.688V33.848ZM33.8605 35.896V36.84L29.3645 37.056L29.2125 36.024L33.8605 35.896ZM41.5321 35.92H42.8201V36.952H41.5321V35.92ZM38.6921 38.16H39.2281C40.2201 38.16 40.9001 38.152 41.7161 38.032L41.8121 39.056C40.9721 39.184 40.2521 39.192 39.2281 39.192H38.6921V38.16ZM38.6921 34.032H41.4841V35.048H39.9161V38.544H38.6921V34.032ZM39.5721 36.048H41.2361V37.032H39.5721V36.048ZM43.7801 33.248H45.0041V40.752H43.7801V33.248ZM42.2041 33.36H43.4041V40.456H42.2041V33.36ZM48.1395 33.64H49.2595V34.16C49.2595 35.784 48.2995 37.328 46.1155 37.728L45.5715 36.656C47.4675 36.344 48.1395 35.128 48.1395 34.16V33.64ZM48.4035 33.64H49.5235V34.16C49.5235 35.16 50.1795 36.344 52.0915 36.656L51.5475 37.728C49.3555 37.32 48.4035 35.816 48.4035 34.16V33.64ZM45.4755 38.848H52.2675V39.896H45.4755V38.848ZM53.1869 37.016H58.5309V38.024H53.1869V37.016ZM52.4349 38.92H59.2269V39.96H52.4349V38.92ZM53.1869 33.744H58.4829V34.768H54.4989V37.288H53.1869V33.744ZM54.1069 35.384H58.3069V36.376H54.1069V35.384Z" fill="black"/>
<path d="M37 14C36.1667 14 35.4583 13.7083 34.875 13.125C34.2917 12.5417 34 11.8333 34 11V5C34 4.16667 34.2917 3.45833 34.875 2.875C35.4583 2.29167 36.1667 2 37 2C37.8333 2 38.5417 2.29167 39.125 2.875C39.7083 3.45833 40 4.16667 40 5V11C40 11.8333 39.7083 12.5417 39.125 13.125C38.5417 13.7083 37.8333 14 37 14ZM36 21V17.925C34.2667 17.6917 32.8333 16.9167 31.7 15.6C30.5667 14.2833 30 12.75 30 11H32C32 12.3833 32.4877 13.5627 33.463 14.538C34.4383 15.5133 35.6173 16.0007 37 16C38.3833 16 39.5627 15.5123 40.538 14.537C41.5133 13.5617 42.0007 12.3827 42 11H44C44 12.75 43.4333 14.2833 42.3 15.6C41.1667 16.9167 39.7333 17.6917 38 17.925V21H36Z" fill="#4B72FD"/>
</svg>
