<svg width="74" height="49" viewBox="0 0 74 49" fill="none" xmlns="http://www.w3.org/2000/svg">
<path d="M12.4918 33.304H13.5078V40.712H12.4918V33.304ZM11.5238 36.16H12.7558V37.008H11.5238V36.16ZM10.8358 33.432H11.8278V40.36H10.8358V33.432ZM7.45175 34.12H8.51575V38.4H7.45175V34.12ZM7.45175 38H7.96375C8.67575 38 9.50775 37.96 10.4278 37.784L10.5318 38.696C9.56375 38.872 8.71575 38.912 7.96375 38.912H7.45175V38ZM16.3596 33.592H21.3916V36.216H16.3596V33.592ZM20.3436 34.424H17.3996V35.384H20.3436V34.424ZM15.5356 36.912H22.2316V37.752H15.5356V36.912ZM18.3436 36.024H19.4076V37.152H18.3436V36.024ZM16.2796 38.288H21.4236V40.712H20.3596V39.128H16.2796V38.288ZM22.503 38.976H29.207V39.848H22.503V38.976ZM25.287 37.328H26.343V39.208H25.287V37.328ZM25.247 33.712H26.175V34.248C26.175 35.824 25.031 37.216 23.095 37.568L22.655 36.68C24.343 36.408 25.247 35.272 25.247 34.248V33.712ZM25.455 33.712H26.383V34.248C26.383 35.296 27.287 36.408 28.983 36.68L28.543 37.568C26.599 37.208 25.455 35.848 25.455 34.248V33.712ZM34.5584 33.296H35.6224V40.728H34.5584V33.296ZM29.8544 38.136H30.5104C31.8224 38.136 32.8704 38.088 34.0464 37.888L34.1504 38.744C32.9504 38.96 31.8624 39 30.5104 39H29.8544V38.136ZM29.8464 33.928H33.3424V36.792H30.9344V38.456H29.8544V35.952H32.2544V34.776H29.8464V33.928ZM39.2468 36.688H45.9508V37.552H39.2468V36.688ZM40.0548 35.336H45.1908V36.176H40.0548V35.336ZM40.0548 33.504H45.1508V34.352H41.1108V35.752H40.0548V33.504ZM42.5748 37.992C44.1748 37.992 45.1428 38.48 45.1428 39.352C45.1428 40.224 44.1748 40.712 42.5748 40.712C40.9748 40.712 39.9988 40.224 39.9988 39.352C39.9988 38.48 40.9748 37.992 42.5748 37.992ZM42.5748 38.792C41.5828 38.792 41.0788 38.976 41.0788 39.352C41.0788 39.736 41.5828 39.904 42.5748 39.904C43.5668 39.904 44.0708 39.736 44.0708 39.352C44.0708 38.976 43.5668 38.792 42.5748 38.792ZM46.1981 37.272H52.9101V38.12H46.1981V37.272ZM47.0221 33.448H52.0941V35.456H48.0861V36.256H47.0301V34.704H51.0461V34.256H47.0221V33.448ZM47.0301 35.936H52.2381V36.744H47.0301V35.936ZM49.0221 36.328H50.0861V37.736H49.0221V36.328ZM46.9421 38.536H52.1421V40.688H51.0781V39.376H46.9421V38.536ZM57.9095 33.304H58.9655V40.712H57.9095V33.304ZM58.7255 36.192H60.0375V37.08H58.7255V36.192ZM53.1255 34.4H57.4375V35.248H53.1255V34.4ZM55.2935 35.664C56.3735 35.664 57.1735 36.4 57.1735 37.432C57.1735 38.464 56.3735 39.2 55.2935 39.2C54.2135 39.2 53.4135 38.464 53.4135 37.432C53.4135 36.4 54.2135 35.664 55.2935 35.664ZM55.2935 36.528C54.7895 36.528 54.4295 36.864 54.4295 37.432C54.4295 38 54.7895 38.336 55.2935 38.336C55.7975 38.336 56.1575 38 56.1575 37.432C56.1575 36.864 55.7975 36.528 55.2935 36.528ZM54.7575 33.424H55.8215V34.72H54.7575V33.424ZM65.2209 33.304H66.2929V40.712H65.2209V33.304ZM63.0369 34.072H64.0929C64.0929 36.336 63.3249 38.192 60.6929 39.464L60.1409 38.616C62.2689 37.592 63.0369 36.248 63.0369 34.264V34.072ZM60.5329 34.072H63.5409V34.912H60.5329V34.072Z" fill="black"/>
<path d="M38 14.252V16.342C37.0949 16.022 36.1263 15.9239 35.1754 16.0558C34.2245 16.1877 33.3192 16.5459 32.5354 17.1002C31.7517 17.6545 31.1123 18.3888 30.6712 19.2414C30.23 20.094 29.9998 21.04 30 22H28C27.9995 20.7788 28.2787 19.5737 28.816 18.4771C29.3533 17.3804 30.1345 16.4214 31.0998 15.6733C32.0651 14.9253 33.1889 14.4082 34.3849 14.1617C35.581 13.9152 36.8176 13.9467 38 14.252ZM36 13C32.685 13 30 10.315 30 7C30 3.685 32.685 1 36 1C39.315 1 42 3.685 42 7C42 10.315 39.315 13 36 13ZM36 11C38.21 11 40 9.21 40 7C40 4.79 38.21 3 36 3C33.79 3 32 4.79 32 7C32 9.21 33.79 11 36 11ZM42 17V14H44V17H47V19H44V22H42V19H39V17H42Z" fill="#4B72FD"/>
</svg>
