<svg width="22" height="25" viewBox="0 0 22 25" fill="none" xmlns="http://www.w3.org/2000/svg">
<g clip-path="url(#clip0_503_1802)">
<path d="M10.9375 12.5C14.3893 12.5 17.1875 9.70178 17.1875 6.25C17.1875 2.79822 14.3893 0 10.9375 0C7.48572 0 4.6875 2.79822 4.6875 6.25C4.6875 9.70178 7.48572 12.5 10.9375 12.5Z" fill="#8F8F8F"/>
<path d="M0.528166 20.8125C1.56098 16.45 5.89379 14.0625 10.3797 14.0625H11.4954C15.9813 14.0625 20.3141 16.4484 21.3469 20.8125C21.5469 21.6578 21.7063 22.5422 21.7954 23.4406C21.8813 24.3 21.175 25 20.3125 25H1.56254C0.700041 25 -0.00620876 24.2984 0.0797287 23.4406C0.168791 22.5422 0.328166 21.6578 0.528166 20.8125Z" fill="#8F8F8F"/>
</g>
<defs>
<clipPath id="clip0_503_1802">
<rect width="22" height="25" fill="white"/>
</clipPath>
</defs>
</svg>
