<svg width="31" height="25" viewBox="0 0 31 25" fill="none" xmlns="http://www.w3.org/2000/svg">
<path d="M15.405 24.1332C16.2805 24.1332 16.9115 23.4891 16.9115 22.6262V2.08047C16.9115 1.2176 16.2805 0.495972 15.3786 0.495972C14.7477 0.495972 14.3355 0.805397 13.6397 1.4237L7.58584 6.79496C7.50835 6.8719 7.39238 6.91092 7.26378 6.91092H3.438C1.60893 6.91092 0.707031 7.82546 0.707031 9.7705V14.8977C0.707031 16.8433 1.60838 17.7573 3.438 17.7573H7.26323C7.39238 17.7573 7.50835 17.7958 7.58584 17.8733L13.6397 23.2967C14.2712 23.8628 14.7735 24.1338 15.4045 24.1338M26.5339 21.5061C27.0357 21.8408 27.654 21.7122 28.0151 21.1967C29.715 18.8268 30.707 15.671 30.707 12.3734C30.707 9.06261 29.7282 5.9068 28.0151 3.53637C27.6414 3.03403 27.0357 2.90543 26.5334 3.24013C26.0442 3.57539 25.9667 4.20633 26.3531 4.76033C27.7573 6.82134 28.6334 9.52647 28.6334 12.3734C28.6334 15.2203 27.7832 17.9508 26.3531 19.9859C25.9794 20.5399 26.0448 21.1709 26.5339 21.5061ZM14.6565 21.416C14.5922 21.416 14.5147 21.3775 14.4372 21.3L8.73286 16.1596C8.42344 15.876 8.16567 15.8117 7.81833 15.8117H3.52814C3.0258 15.8117 2.78068 15.5798 2.78068 15.0643V9.60287C2.78068 9.10053 3.0258 8.85596 3.52814 8.85596H7.81778C8.16512 8.85596 8.41025 8.8043 8.73231 8.50806L14.4383 3.32972C14.5031 3.2786 14.5801 3.22694 14.6576 3.22694C14.773 3.22694 14.8378 3.30389 14.8378 3.40721V21.222C14.8378 21.338 14.7735 21.4155 14.6576 21.4155M21.3946 18.0277C21.8326 18.3366 22.4636 18.2333 22.8373 17.7309C23.842 16.3789 24.4476 14.3948 24.4476 12.3723C24.4476 10.3498 23.8293 8.37946 22.8373 7.00106C22.4636 6.49872 21.8453 6.39539 21.3946 6.70427C20.8274 7.078 20.7631 7.73532 21.1753 8.30196C21.9228 9.30663 22.3734 10.8395 22.3734 12.3723C22.3734 13.9057 21.8969 15.4385 21.1627 16.4559C20.7763 17.0098 20.8406 17.6408 21.3946 18.0277Z" fill="white"/>
</svg>
