<svg width="93" height="83" viewBox="0 0 93 83" fill="none" xmlns="http://www.w3.org/2000/svg">
<path d="M88.5279 19.8452L28.2511 0.105233C27.1275 -0.259845 22.8913 0.35335 20.6767 4.49369L2.13762 39.1796C1.17063 40.9907 -0.454052 45.4723 2.96934 47.6538L55.8158 81.2818C56.1495 81.4953 56.5034 81.6767 56.8657 81.8227C58.2471 82.3793 63.6716 83.2728 66.1295 78.6641L91.3748 31.4343C93.7367 27.0213 92.806 21.2398 88.5279 19.8452ZM27.5154 2.38049L87.7866 22.1167C88.548 22.358 89.212 22.8372 89.6809 23.4838L57.453 35.3579C58.0042 34.2978 58.4021 33.1649 58.6349 31.9931C60.9867 20.1096 48.1827 20.8628 44.5875 25.5077C46.2239 19.7127 39.2545 12.4682 31.6395 20.7676C31.2871 21.1562 30.9598 21.5669 30.6596 21.9971L26.199 2.47247C26.6983 2.29993 27.1584 2.26395 27.5154 2.38049ZM4.2794 40.3143L22.8185 5.62839C23.1543 5.00184 23.5804 4.41885 24.0608 3.9224L29.0524 25.0726C28.3433 27.0251 28.0713 29.1163 28.0902 31.2241L3.61668 42.0339C3.76557 41.4355 3.98818 40.8578 4.2794 40.3143ZM57.1106 79.2706L4.26465 45.6415C3.97395 45.4568 3.74801 45.1185 3.6043 44.6724L28.2412 33.7891C28.9841 40.6678 32.1452 47.0965 32.2528 48.3991C33.35 47.9557 42.4548 46.7901 49.7208 42.7173L51.0236 47.6108L59.6242 79.8752C58.7426 79.9565 57.8588 79.744 57.1106 79.2706ZM89.6813 29.1908L64.4365 76.4194C63.8223 77.5691 62.9384 78.5067 61.9181 79.1162L51.8614 41.3862C52.7858 40.7543 53.6579 40.0491 54.4692 39.2774L90.4763 25.755C90.5562 26.8624 90.2846 28.0611 89.6813 29.1908Z" fill="white"/>
</svg>
