<svg width="60" height="25" viewBox="0 0 60 25" fill="none" xmlns="http://www.w3.org/2000/svg">
<path d="M59.8456 17.1387L59.2495 20.2507C58.6984 23.1602 55.9726 25.1173 52.8869 24.8174L46.7493 24.225C44.0723 23.9663 42.0889 22.0129 41.249 19.2384C40.1092 15.4703 39.3744 12.6771 39.3744 12.6771C36.4139 11.4083 33.2218 10.7699 30.0011 10.8024C26.1993 10.8024 23.4848 11.6085 20.6278 12.6771C20.6278 12.6771 19.8629 15.4741 18.7531 19.2384C18.0107 21.7504 16.8635 23.9513 14.2427 24.2137L8.1388 24.8286C6.65241 24.9713 5.16218 24.5983 3.91827 23.7723C2.67437 22.9462 1.75254 21.7173 1.30754 20.2919L0.377707 17.1875C-0.0831349 15.7015 -0.125013 14.1172 0.256683 12.6089C0.638379 11.1006 1.42885 9.72694 2.54106 8.63904C7.88384 3.44624 17.5008 0.52177 29.9711 0.503023C42.4638 0.491775 50.9448 3.40125 56.8237 8.5903C59.2982 10.7724 60.4343 14.0568 59.8456 17.1387Z" fill="white"/>
</svg>
